<svg width="209" height="209" viewBox="0 0 209 209" fill="none" xmlns="http://www.w3.org/2000/svg">
<path d="M86.0365 -4.88758e-06L94.228 5.73576L14.5009 119.598L129.182 199.899L122.873 208.909L-5.84126e-06 122.873L86.0365 -4.88758e-06Z" fill="#D41C1C"/>
<path d="M102.42 11.4715L110.611 17.2073L41.7818 115.506L140.08 184.335L134.344 192.526L27.8546 117.961L102.42 11.4715Z" fill="#D41C1C"/>
<path d="M118.803 22.9431L208.909 86.0365L203.174 94.228L121.258 36.8703L69.6364 110.594L151.552 167.952L145.816 176.143L55.7091 113.05L118.803 22.9431Z" fill="#D41C1C"/>
<path d="M180.23 126.994L139.273 98.3152L145.009 90.1237L185.966 118.803L180.23 126.994Z" fill="#D41C1C"/>
<path d="M140.097 62.2692L197.438 102.42L191.702 110.611L142.553 76.1964L125.346 100.771L174.495 135.186L168.759 143.377L111.418 103.227L140.097 62.2692Z" fill="#D41C1C"/>
<path d="M123.714 50.7976L132.725 57.107L98.3101 106.256L163.023 151.569L157.287 159.76L83.5637 108.138L123.714 50.7976Z" fill="#D41C1C"/>
</svg>
